<?xml version="1.0" encoding="UTF-8" standalone="no"?>
<!-- Created with Inkscape (http://www.inkscape.org/) -->

<svg
   xmlns:dc="http://purl.org/dc/elements/1.1/"
   xmlns:cc="http://creativecommons.org/ns#"
   xmlns:rdf="http://www.w3.org/1999/02/22-rdf-syntax-ns#"
   xmlns:svg="http://www.w3.org/2000/svg"
   xmlns="http://www.w3.org/2000/svg"
   xmlns:xlink="http://www.w3.org/1999/xlink"
   version="1.1"
   width="1083.2302"
   height="763.27393"
   id="svg2">
  <defs
     id="defs4" />
  <metadata
     id="metadata7">
    <rdf:RDF>
      <cc:Work
         rdf:about="">
        <dc:format>image/svg+xml</dc:format>
        <dc:type
           rdf:resource="http://purl.org/dc/dcmitype/StillImage" />
        <dc:title></dc:title>
      </cc:Work>
    </rdf:RDF>
  </metadata>
  <g
     transform="translate(202.97647,-199.501)"
     id="layer1">
    <g
       transform="matrix(0.97456339,-0.22411202,0.22411202,0.97456339,-125.85008,90.385634)"
       id="g4398">
      <path
         d="m 145.71428,258.07647 c 0,0 108.57142,-2.85714 214.28571,85.71428 106.32504,89.08313 71.42857,317.14286 71.42857,317.14286"
         id="path4273"
         style="fill:#ffffff;stroke:#ffffff;stroke-width:1px;stroke-linecap:butt;stroke-linejoin:miter;stroke-opacity:1" />
      <text
         transform="translate(-8.5714357,8.5714343)"
         id="text4357"
         xml:space="preserve"
         style="font-size:166.78131104px;font-style:normal;font-variant:normal;font-weight:bold;font-stretch:normal;line-height:125%;letter-spacing:0px;word-spacing:0px;fill:#7b1a1a;fill-opacity:1;stroke:none;font-family:cmr10;-inkscape-font-specification:cmr10 Bold"><textPath
           xlink:href="#path4273"
           id="textPath4361"><tspan
   id="tspan4359"
   style="font-weight:bold;fill:#7b1a1a;fill-opacity:1;-inkscape-font-specification:cmr10 Bold">Diver</tspan></textPath></text>
      <path
         d="m -36.994401,186.29814 c 0.06799,0.27153 8.127696,2.15695 9.704617,2.6246 4.525282,1.34206 14.378354,8.21548 18.3039674,12.76873 4.585828,5.31902 9.41414576,15.19329 10.0393106,20.53116 l 0.4790053,4.08989 4.9450908,0.29758 c 6.8910429,0.41468 13.6987359,2.86431 22.0344059,7.92872 10.320281,6.27018 17.161497,14.68704 21.995253,27.06112 l 1.535314,3.9303 2.491441,-1.83624 c 1.370295,-1.00991 5.190094,-3.00832 8.488451,-4.44089 13.488275,-5.85837 30.200571,-4.24458 44.042625,4.25285 5.85133,3.59204 14.61925,13.37702 16.99762,18.96933 0.83304,1.9587 1.8568,3.67025 2.27503,3.80345 0.41827,0.13319 3.74843,-0.97124 7.40041,-2.45425 12.46365,-5.06138 26.13416,-4.0762 38.4704,2.77244 6.97897,3.87448 14.69634,11.40933 17.43957,17.02713 l 1.204,2.46565 5.53014,-1.6884 c 10.4921,-3.20331 24.58126,-1.3625 34.00738,4.44321 -3.88407,-0.69198 -0.60291,-2.51672 8.19457,6.15242 3.19908,3.15243 7.6261,8.37001 4.91725,9.21726 -1.29404,0.40469 -7.60705,-2.8902 -8.86562,-0.79102 l -2.1924,3.65631 2.23203,4.30328 c 1.22761,2.3668 3.3494,5.14702 4.71511,6.17826 2.2186,1.67532 2.65181,1.70406 4.06709,0.26987 14.28084,-13.30888 -13.53282,-15.18784 -2.44472,-17.08727 0.11198,0.44741 0.65314,0.49818 1.2026,0.11245 0.57737,-0.40497 1.65715,0.24871 2.55848,1.54888 1.43033,2.06322 2.03117,2.18126 7.25276,1.42493 12.73105,-1.844 28.66397,5.03215 36.3724,15.69722 3.10948,4.30216 3.81898,4.79769 7.08101,4.94554 6.46946,0.2932 12.24876,2.13328 18.18418,5.78969 4.5193,2.78403 9.13359,7.27924 8.61029,8.36959 -0.84304,2.50123 1.04456,4.06528 -1.72029,4.13193 -5.73539,-2.98727 -7.17913,3.83824 -7.08391,4.69866 0.0952,0.86041 -0.77561,3.12972 0.38046,5.86734 4.50717,7.79717 14.33352,6.84623 12.85913,-3.06461 -0.16057,-1.32244 -0.58137,-1.97151 -1.27437,-3.34425 -0.6231,-1.23431 -1.1482,-2.51459 -1.80554,-2.60736 -0.89939,-0.12696 -0.40957,-1.18973 -9.55026,-3.71432 -15.48628,-15.45121 4.13716,-10.12595 11.0161,0.83863 3.02692,4.86209 3.88116,5.61674 7.4583,6.58886 9.03419,2.45508 17.61055,10.16354 22.48807,20.21233 1.74114,3.58714 3.62892,6.0719 5.66753,7.45974 1.68123,1.14456 2.95791,2.25335 2.83707,2.46398 -0.12084,0.21062 0.90774,1.11443 2.28575,2.00844 3.66518,2.37786 7.18617,8.66948 9.51264,16.99797 1.68699,6.03929 2.71471,8.13328 5.84566,11.9107 3.25537,3.92752 4.06503,5.63806 5.65976,11.95723 1.0844,4.29562 1.66157,8.66955 1.38334,10.47735 -0.41461,2.69416 -0.0911,3.79483 2.45364,8.34839 3.85188,6.89254 5.17978,14.72052 3.77606,22.26007 -0.97112,5.21599 -0.893,5.94532 1.03254,9.63753 1.14573,2.19697 2.44621,6.32045 2.88991,9.1633 0.79464,5.09124 -0.37759,14.67203 -2.21671,18.1175 -0.78848,1.47717 -0.61087,2.37813 1.09718,5.56553 4.21159,7.85926 4.29227,20.49723 0.17466,27.36427 -1.24584,2.07772 -1.18035,2.62372 0.81986,6.83464 4.76697,10.03562 4.99106,16.95162 0.86614,26.73222 -2.31674,5.49321 -2.33164,5.74346 -0.47402,7.95849 1.05487,1.25783 2.8389,5.22867 3.96452,8.8241 1.79806,5.74334 1.91902,7.22508 0.99598,12.20223 -0.57783,3.11581 -1.94545,7.21632 -3.03912,9.11228 l -1.98853,3.44718 3.17391,4.09597 c 4.32036,5.57545 6.87227,15.22421 5.69161,21.51982 l -0.83022,4.42683 4.96585,9.87363 4.96585,9.87364 21.61267,22.77798 21.61266,22.77796 11.75124,6.80038 c 6.46316,3.74012 12.46737,6.62104 13.34265,6.40196 5.57999,-1.39665 19.19772,1.68735 23.43575,5.3075 3.60864,3.08254 4.4892,3.23597 8.11042,1.41351 6.23578,-3.13847 17.37601,-2.77864 24.54557,0.79269 3.85065,1.91804 4.54323,1.95192 10.1973,0.49853 6.78526,-1.74445 11.71671,-1.63062 17.49452,0.40316 2.78984,0.98193 4.82104,1.07184 7.1246,0.31533 3.62973,-1.19215 9.41915,-1.29222 15.15558,-0.26181 2.12466,0.38159 6.31541,0.54235 9.3128,0.35733 2.9974,-0.18503 7.20407,0.0394 9.3482,0.49884 2.14414,0.45945 5.91256,1.02469 8.3743,1.25615 6.49004,0.61028 20.42359,7.92659 24.65275,12.94485 6.38582,7.57729 10.91881,23.61925 7.59022,26.86135 -2.24592,2.18759 -3.77355,5.1356 -3.03417,5.85535 0.41202,0.40111 0.0186,0.61342 -0.92401,0.49866 -1.27205,-0.15483 -1.4278,0.10494 -0.69195,1.154 0.52229,0.74466 0.54182,1.224 0.0434,1.0653 -0.98955,-0.31511 -2.30115,13.18477 -1.56626,16.12089 0.24993,0.99851 -0.14981,2.71791 -0.88829,3.82093 -0.73848,1.10302 -1.17597,2.67157 -0.97219,3.48572 0.42725,1.70701 -1.80781,8.50751 -3.6597,11.13549 -0.69249,0.98258 -1.29136,3.60489 -1.33086,5.82719 -0.0725,4.08188 -2.73742,12.62747 -4.03937,12.95335 -0.38795,0.0971 -0.45137,2.15982 -0.14093,4.58386 0.66145,5.1648 -0.467,10.79246 -2.92555,14.59017 -1.38687,2.14217 -1.50997,3.1871 -0.59287,5.03133 1.23848,2.49058 1.69283,11.03131 0.70298,13.21468 -0.64647,1.42597 0.67617,5.3762 6.1673,18.41927 2.72378,6.46984 5.66175,11.25834 13.49032,21.9876 11.30847,15.49852 11.56578,15.81108 15.79443,19.18567 1.69365,1.35156 7.35054,5.99485 12.57084,10.31833 6.56569,5.43774 12.50105,9.36828 19.25489,12.7511 15.60801,7.81759 18.92977,9.13483 22.27999,8.83502 1.73659,-0.1554 4.45322,-0.0803 6.03692,0.16679 1.58371,0.2471 6.2246,-0.28106 10.31311,-1.17361 4.08851,-0.89257 8.41801,-1.83567 9.62114,-2.09568 5.74004,-1.24062 13.95975,-4.23059 14.26496,-5.18882 0.18751,-0.5889 2.5347,-2.87027 5.21597,-5.0698 13.94866,-11.44241 29.30866,-9.22708 37.88003,5.46345 5.25145,9.00051 4.19891,18.39425 -3.09813,27.65036 -2.2603,2.8672 -4.60971,5.33802 -5.22094,5.49112 -0.61122,0.1529 -2.9572,1.7738 -5.21329,3.6017 -2.29234,1.8573 -5.70102,3.7277 -7.72666,4.2398 -2.05414,0.5233 -4.04737,1.6211 -4.60075,2.544 -0.83334,1.3898 -5.5256,2.7558 -32.08514,9.3399 -5.41202,-1.07 -13.25988,5.9583 -25.46278,3.1222 l -3.45384,-1.5766 -3.4538,-1.5764 -8.59332,3.8688 c -4.72631,2.1278 -12.961,6.0357 -18.29927,8.6841 -8.79472,4.3632 -11.49218,5.2624 -28.73159,9.5774 -15.29993,2.1994 -15.3443,-3.9539 -24.01064,-8.6533 -6.51066,-3.5176 -9.92593,-7.9207 -11.74354,-15.1403 -0.84076,-3.3406 -1.25916,-7.1044 -0.92926,-8.3644 0.53695,-2.0504 0.147,-2.6897 -3.71902,-6.097 -4.02134,-3.5442 -4.62196,-3.7677 -8.71804,-3.2431 -11.68045,1.4958 -22.21678,-4.01432 -27.97445,-14.63002 -1.76497,-3.25412 -2.35911,-3.72245 -3.91512,-3.08589 -2.62661,1.07461 -11.92548,0.56206 -15.55787,-0.85747 -7.37888,-2.88373 -13.4241,-9.14932 -16.33449,-16.93003 l -1.7743,-4.74339 -4.30459,0.55124 c -8.23321,1.0544 -16.13099,-2.24095 -22.35668,-9.32837 -2.58667,-2.94468 -3.76286,-5.30107 -5.32029,-10.65869 l -1.99943,-6.87822 -3.57545,0.26479 c -12.65464,0.93724 -26.35493,-11.64644 -27.15091,-24.9381 0.0636,-4.79125 0.0197,-1.92313 0.5773,-8.28624 -3.08076,1.25931 -11.61048,0.99038 -4.42187,0.61694 -9.68672,1.88531 -12.84477,-3.16427 -16.62219,-5.98044 -3.34675,-3.32321 -4.55451,-5.23199 -6.18055,-8.55962 -1.13495,-2.32263 -1.74305,-5.00015 -1.77394,-7.8107 -0.11613,-10.56515 0.14807,-9.98251 -5.07417,-11.18958 -6.22154,-1.43805 -10.92098,-4.50351 -15.28873,-9.97278 -5.23695,-6.55773 -6.79842,-15.88517 -4.2693,-25.50285 0.0899,-0.34192 -1.86024,-1.21414 -4.33371,-1.93842 -9.13192,-2.67368 -17.64006,-12.79678 -18.67114,-22.2151 -0.43734,-3.99483 0.40105,-10.22541 1.89359,-14.07232 0.60236,-1.55254 0.43251,-1.92102 -1.08006,-2.34292 -6.69249,-1.86693 -14.13259,-8.93665 -16.91701,-16.07486 -0.65909,-1.68967 -2.50497,-4.133 -4.10198,-5.42963 -4.52561,-3.67445 -8.31029,-8.45107 -9.96546,-12.57735 -1.69954,-4.23692 -1.3824,-4.17979 -7.2373,-1.30433 -5.83296,2.86468 -14.48852,3.40868 -22.15857,1.39251 -10.6922,-2.81082 -20.10461,-12.3327 -22.78783,-23.05274 l -1.12816,-4.50727 -7.53345,2.34868 c -12.32683,3.84307 -22.45432,2.14267 -31.90431,-5.35672 -7.35843,-5.83953 -12.9831,-16.60831 -12.7194,-24.35203 l 0.0968,-2.84081 -8.39746,2.15252 c -8.00846,2.05284 -8.74181,2.07778 -15.83121,0.53886 -12.49391,-2.71212 -21.31299,-10.33136 -25.22479,-21.7929 -1.782,-5.22126 -2.63923,-12.01032 -2.08811,-16.53723 0.17904,-1.47045 -0.21726,-1.49007 -3.49996,-0.1733 -8.44241,3.38646 -20.57886,1.91765 -29.72226,-3.59714 -12.27212,-7.40188 -18.16883,-20.01427 -16.14374,-34.5296 l 0.77745,-5.57245 -3.59051,0.88775 c -7.42771,1.83654 -19.17149,0.31044 -26.15487,-3.39871 -4.29263,-2.28 -9.28465,-6.98108 -12.79905,-12.05311 -2.06989,-2.98727 -2.99122,-5.55047 -4.30323,-11.97161 -1.46284,-7.15941 -1.48509,-9.01275 -0.17968,-14.97668 l 1.48978,-6.80621 -5.90335,0.38156 c -16.18189,1.04587 -30.698181,-7.63292 -36.784455,-21.99217 -3.790059,-8.94183 -3.495723,-21.90253 0.663142,-29.20098 0.923653,-1.62092 1.480158,-3.03482 1.236678,-3.14198 -0.243485,-0.10719 -2.708616,-0.12748 -5.478066,-0.0457 -19.22945,0.57169 -36.418208,-14.31726 -37.760285,-32.70804 -0.227803,-3.12161 -0.176762,-7.24104 0.113415,-9.15429 0.657598,-4.33583 4.147955,-13.25668 5.795752,-14.8131 1.060325,-1.00154 1.034461,-1.18373 -0.184746,-1.30124 -8.69158,-0.83778 -12.595622,-1.60689 -16.70011,-3.29014 -5.31211,-2.17848 -6.287863,-1.03473 -13.729725,-9.05182 C 9.2180017,448.15787 6.2525935,442.07782 4.3006236,438.09865 1.2932613,424.93638 3.6682999,412.54417 6.7639214,406.15776 8.5714099,402.93454 10.034145,400.233 10.014442,400.1543 9.994822,400.0755 7.8400929,399.66392 5.226344,399.23942 -0.87820844,397.63825 1.4596105,400.31861 -9.4588586,394.10718 -28.078611,383.1438 -34.055022,359.40464 -22.796449,341.12861 l 3.599643,-5.84329 -5.384813,-1.48187 c -6.877168,-1.89254 -15.854399,-7.29333 -20.408559,-12.27798 -7.125856,-7.79945 -11.362739,-20.02285 -10.41768,-30.05502 0.202325,-2.14769 1.520248,-3.04163 0.05063,-4.09512 -1.469618,-1.05349 -3.040441,0.90683 -6.368822,2.24769 -16.016754,6.45235 -37.820356,1.23248 -50.74495,-7.0202 -12.92459,-8.25268 -21.03425,-22.36785 -22.06555,-34.29427 -1.0313,-11.92642 5.51503,-27.55143 12.57261,-35.67563 7.05758,-8.12419 17.28741,-11.76821 25.226607,-16.21126 7.9392,-4.44305 21.669014,-3.78602 21.70486,-3.68297 16.52896,2.81819 -1.987458,-5.84457 38.038072,-6.44055 z m -13.877137,47.65198 c 6.151642,7.36156 13.329897,1.19984 9.455533,-8.1165 -1.681602,-4.0436 -6.736006,-7.96539 -9.382132,-7.27974 -5.142263,1.33248 -5.180187,9.28505 -0.0734,15.39624 z m 38.263502,-13.98636 c 2.320051,2.84937 4.7565784,3.32275 6.0447524,1.17442 2.363093,-3.941 -2.469798,-13.05217 -6.4013634,-12.0681 -3.749242,0.93843 -3.581686,6.05689 0.356611,10.89368 z m 43.659848,111.02402 c 5.354676,3.54079 10.880219,10.02409 13.822599,16.21851 2.400693,5.05407 1.075074,4.753 15.486129,3.51711 16.566772,-1.42078 15.623462,-1.12525 9.454738,-2.96206 -13.107397,-3.90293 -24.248431,-13.69871 -30.351211,-26.68638 -2.821363,-6.00429 -3.600059,-7.06157 -4.617092,-6.26887 -3.228392,2.5163 -12.177548,6.9923 -15.976409,7.99073 l -4.244826,1.11569 5.95879,2.04702 c 3.27733,1.12587 7.987612,3.3886 10.467292,5.0283 z m 14.496753,57.54547 c 3.022292,0.5627 7.488849,1.96467 9.925692,3.1155 5.437042,2.56773 13.640045,9.86584 15.403877,13.70463 l 1.30591,2.84217 7.4953,-1.88769 c 4.122401,-1.03828 17.949428,-4.89306 30.726706,-8.56627 12.77727,-3.67321 33.51655,-9.53003 46.08726,-13.01515 12.57071,-3.48512 23.12157,-6.59912 23.44636,-6.91997 0.32479,-0.32086 0.0484,-0.98099 -0.61421,-1.46696 -0.6626,-0.48597 -2.6794,-2.89914 -4.48181,-5.3626 l -3.27706,-4.47903 -9.91844,2.36216 c -9.7287,2.31697 -10.07783,2.32939 -18.25063,0.65025 -5.67283,-1.16548 -10.33603,-2.88097 -14.61042,-5.37481 l -6.27821,-3.66296 -34.921337,2.786 c -19.206734,1.53231 -35.825843,2.80267 -36.931356,2.82304 -1.687725,0.031 -2.240329,0.96042 -3.446392,5.79588 -0.790004,3.16735 -2.744718,7.89514 -4.343801,10.50615 -1.59908,2.61104 -2.886064,4.83267 -2.859958,4.93698 0.02612,0.1043 2.520243,0.65002 5.542525,1.21271 z m -7.599311,-36.33223 c 3.252612,-0.81413 3.293473,-0.8809 2.165163,-3.53953 -1.075454,-2.5341 -4.633582,-5.06598 -6.472526,-4.6057 -0.447537,0.11203 -1.025741,1.58086 -1.284895,3.26409 -0.664594,4.31648 1.232539,5.97238 5.592258,4.88114 z m 25.768764,58.11356 c 2.319504,-0.58056 2.821116,-1.02371 2.185138,-1.93044 -0.991307,-1.41331 -3.462193,-0.94527 -4.545253,0.86098 -1.111255,1.85327 -0.990308,1.90808 2.360115,1.06946 z m 17.270992,38.4701 c 6.689564,1.5471 12.984239,4.97941 17.581316,9.5866 2.202764,2.20759 4.404344,3.91387 4.892414,3.7917 0.83579,-0.20919 20.67943,-9.30699 99.39047,-45.56796 18.24593,-8.40561 33.44439,-15.35051 33.77436,-15.4331 0.32995,-0.0826 -0.99134,-1.30831 -2.9362,-2.72383 -1.94486,-1.41551 -5.41395,-4.59396 -7.7091,-7.06319 l -4.17298,-4.48951 -6.09065,0.96354 c -3.34987,0.52995 -8.2163,0.76224 -10.8143,0.51621 -4.42839,-0.41937 -7.23103,0.24539 -44.83825,10.63535 -80.525868,22.24733 -82.950313,22.9489 -82.980762,24.01209 -0.196737,6.87043 -1.657752,13.75095 -3.984564,18.76489 l -2.82894,6.09595 3.035443,-0.0816 c 1.669495,-0.0449 5.126279,0.40192 7.681743,0.99291 z M 33.773985,265.11899 c 2.094653,3.19579 5.754351,5.52129 7.859696,4.99433 2.559661,-0.64068 3.790239,-4.85962 2.694426,-9.23763 -1.19902,-4.79035 -3.99878,-8.13974 -7.549721,-9.03185 -3.068066,-0.77078 -4.729513,0.90772 -5.123152,5.17582 -0.381718,4.13862 -0.318248,4.38123 2.118751,8.09933 z m 64.924287,210.01306 c 1.203939,0.0923 0.676006,-3.34568 -0.847245,-5.51738 -0.650677,-0.92768 -1.118265,-0.9424 -1.768614,-0.0557 -1.031315,1.40617 0.861419,5.43862 2.615859,5.57308 z m 11.837668,28.1491 c 7.50124,-0.29842 17.08947,3.11881 23.97985,8.54644 l 2.46454,1.94134 18.53065,-11.96302 c 47.40376,-30.60293 120.85527,-78.19835 124.26549,-80.52212 0.5881,-0.40073 -1.21271,-1.88266 -4.50484,-3.70719 -3.01652,-1.67177 -7.15682,-4.80005 -9.20066,-6.95171 -2.71605,-2.85936 -4.22869,-3.78382 -5.62095,-3.43535 -1.86145,0.46593 -10.7142,4.44656 -64.75922,29.11898 -41.47287,18.93304 -85.47397,38.92127 -85.93127,39.03575 -0.22886,0.0574 -0.27477,2.66285 -0.10213,5.79016 0.35984,6.51682 -0.88118,13.96016 -3.08918,18.52817 -1.67338,3.46196 -1.27306,3.82705 3.96772,3.61855 z m 24.25843,25.98289 c 2.11989,0.16851 4.02487,-1.42323 3.62333,-3.02746 -0.40509,-1.61841 -3.23525,-3.7602 -4.53792,-3.43415 -1.74182,0.43598 -0.90945,6.31665 0.91459,6.46161 z m 15.05761,24.82149 c 6.19193,-0.96643 14.51992,0.6105 21.0638,3.98848 l 4.65873,2.40485 26.31483,-22.93062 c 14.47315,-12.61185 28.68482,-25.06954 31.58146,-27.68381 2.89665,-2.61426 16.51639,-14.5292 30.26608,-26.47768 13.74969,-11.94848 29.80224,-25.99737 35.67233,-31.21977 12.30058,-10.94337 12.27671,-10.83395 3.59001,-16.45258 -2.84226,-1.8384 -5.82987,-4.07256 -6.6391,-4.96481 -1.45623,-1.60556 -1.79593,-1.41283 -33.0364,18.74391 -59.18353,38.18595 -106.20686,68.4922 -112.38136,72.42911 l -6.16431,3.9304 1.34931,5.39086 c 1.43253,5.7232 1.18476,13.28627 -0.62525,19.08657 -0.601,1.92592 -1.03444,3.74073 -0.9632,4.03291 0.0713,0.29217 2.46212,0.16717 5.31307,-0.27782 z M 108.85176,346.3914 c 1.43416,-0.32014 1.84131,-0.93466 1.50626,-2.27325 -0.42296,-1.68984 -0.76399,-1.70771 -4.32517,-0.22673 -6.086543,2.53122 -6.89121,3.45305 -2.77553,3.17976 1.99595,-0.13255 4.51345,-0.43844 5.59444,-0.67978 z m 67.05792,233.55825 c 3.18247,2.46492 4.71367,1.88243 4.36061,-1.65882 -0.31147,-3.12388 -2.47834,-6.52778 -3.92501,-6.16567 -1.27119,0.31816 -3.37792,3.70658 -3.06984,4.93744 0.14459,0.5777 1.33001,1.87688 2.63424,2.88705 z M 114.16953,295.44316 c 6.6218,5.12557 10.38758,-3.4494 5.15053,-11.72821 -2.62776,-4.154 -5.51862,-5.47142 -8.16829,-3.72242 -1.20939,0.79831 -2.15876,2.39472 -2.21191,3.71946 -0.14638,3.64838 2.52285,9.63597 5.22967,11.73117 z m 80.51212,303.66227 c 6.68791,-1.19918 15.01952,-0.20311 19.63609,2.34758 2.66182,1.47067 2.05701,1.96314 11.27361,-9.17973 6.3944,-7.7308 27.25266,-32.53833 31.56212,-37.53797 0.9828,-1.14023 5.46262,-6.45739 9.95517,-11.81593 4.49254,-5.35854 10.57528,-12.56277 13.51723,-16.00941 5.46282,-6.39994 24.91692,-29.614 30.12534,-35.94775 1.58779,-1.93082 6.02211,-7.1522 9.85409,-11.60308 3.83197,-4.45087 6.90493,-8.32344 6.82877,-8.60574 -0.0761,-0.28227 -1.19999,-2.285 -2.49743,-4.45047 -1.29746,-2.16547 -2.816,-5.76295 -3.37452,-7.9944 -0.55854,-2.23146 -1.31796,-4.23855 -1.68762,-4.46021 -0.61332,-0.36774 -7.08659,5.16166 -48.54115,41.46332 -7.48953,6.55857 -24.17793,21.13748 -37.08535,32.3976 -12.90742,11.26011 -29.25206,25.55423 -36.32142,31.76467 l -12.85339,11.29173 2.10467,7.1311 c 1.65761,5.61631 2.00355,8.4299 1.62855,13.24545 -0.26183,3.3629 -0.73137,6.55598 -1.04333,7.09573 -1.05695,1.82876 0.48168,2.02168 6.91857,0.86751 z m 26.56823,25.15496 c 1.89024,1.43067 4.63586,1.15834 5.6675,-0.56215 1.29122,-2.15342 0.87631,-3.44093 -2.03256,-6.30711 -2.51535,-2.47845 -6.46716,-2.55788 -6.8221,-0.1371 -0.22772,1.55298 1.76251,5.92814 3.18716,7.00636 z m 11.92794,0.50894 c 0.85816,3.4286 1.47036,8.14289 1.36046,10.47622 l -0.19986,4.24244 8.00419,-1.62066 c 6.55388,-1.32699 8.97813,-1.39963 13.37944,-0.40086 l 5.37526,1.21979 8.35339,-14.54204 c 4.59437,-7.99812 19.41015,-33.37918 32.92393,-56.40236 34.61062,-58.9654 33.3815,-56.62771 33.92774,-64.52835 0.4124,-5.96469 0.24156,-7.04068 -1.70819,-10.75821 -1.19152,-2.27187 -2.47607,-4.36035 -2.85456,-4.64105 -0.77939,-0.57807 -8.11139,7.72962 -28.58119,32.38458 -4.58032,5.51679 -21.28226,25.43277 -37.11541,44.25772 -15.83316,18.82494 -31.06797,36.99654 -33.85513,40.38131 l -5.06759,6.15413 2.2486,3.77177 c 1.23673,2.07448 2.95075,6.57698 3.80892,10.00557 z M 178.1727,312.58453 c 3.90612,6.32063 7.03543,8.11347 9.82476,5.62873 2.83685,-2.52707 -0.16314,-11.90872 -4.86033,-15.19928 -2.69543,-1.88824 -5.18245,-0.6144 -6.15278,3.15145 -0.83596,3.24431 -0.86261,3.10032 1.18835,6.4191 z m 91.39677,348.7774 c 2.58887,2.93683 6.09817,2.22702 6.76067,-1.36745 0.92521,-5.01975 -7.72529,-10.82115 -9.2532,-6.20561 -0.68272,2.06237 0.31978,5.10827 2.49253,7.57306 z m 6.40701,-11.33398 c 3.50434,4.13949 4.06801,5.37815 6.0292,13.2489 l 2.16344,8.68248 6.51997,-1.62734 c 3.58603,-0.8948 8.18916,-1.69557 10.22928,-1.77898 l 3.70933,-0.15169 8.49155,-24.36292 c 6.73833,-14.08228 9.90314,-28.17364 13.0295,-37.01938 3.32122,-8.83733 4.17139,-12.34878 5.31844,-15.42383 1.82973,-4.06289 6.82173,-20.24134 7.02153,-20.82705 l 5.76873,-16.87217 -1.96396,-4.63477 c -2.46444,-5.81581 -2.78518,-12.18584 -0.96275,-19.12005 0.74871,-2.84873 1.00411,-5.29327 0.56758,-5.43229 -0.43654,-0.13903 -4.48289,6.1641 -8.99185,14.00697 -4.50899,7.84285 -16.82098,29.07706 -27.35997,47.18714 -30.2245,51.93738 -34.12922,58.78001 -33.77167,59.18144 0.18474,0.20741 2.07547,2.43199 4.20164,4.94351 z m 45.53301,43.20715 c 4.80081,3.08631 6.84303,0.0327 3.89187,-5.81922 -2.28895,-4.53881 -6.8289,-5.88658 -7.9207,-2.35138 -0.7472,2.41945 1.18814,6.34441 4.02883,8.1706 z m -0.83695,-17.21647 c 5.16781,3.93331 8.94902,9.38586 11.19302,16.1405 l 2.03127,6.11428 6.53611,-1.97917 c 3.59487,-1.08856 6.62014,-2.10507 6.72283,-2.25894 0.10271,-0.15387 1.24117,-10.25103 2.52995,-22.43814 1.28876,-12.1871 2.83956,-26.4331 3.44617,-31.65777 1.14086,-9.82574 1.3628,-16.09768 0.48261,-13.63636 -1.53215,4.28428 -7.79628,-14.68591 -6.42697,-19.46335 0.39159,-1.36623 0.8505,-3.14128 1.01979,-3.9446 0.16929,-0.80328 1.0171,-3.24192 1.88399,-5.41917 1.20982,-3.03844 1.28777,-4.27664 0.33537,-5.32673 -1.71757,-1.89373 -1.71338,-2.29132 0.0289,-2.74366 1.25725,-0.32639 1.2667,-0.47562 0.0555,-0.87537 -0.80304,-0.26505 -1.69848,-0.23698 -1.98985,0.0623 -0.29137,0.29932 -0.82483,-0.0899 -1.18546,-0.86492 -0.40793,-0.87667 -2.40628,3.54001 -5.28862,11.6887 -5.28614,14.9445 -8.70719,24.92002 -9.96871,29.06797 -0.90785,2.98504 -10.68054,32.06884 -13.3845,39.83268 -0.85576,2.45713 -1.51807,4.61875 -1.47181,4.80357 0.0463,0.18485 1.59893,1.48903 3.45035,2.89818 z m 14.93858,-59.63004 c -459.62808,-130.42675 -229.81405,-65.21337 0,0 z M 278.33611,352.59348 c 3.75143,2.68966 1.19821,3.57465 9.0355,4.90716 2.8015,0.51007 4.51868,-2.99799 3.48634,-7.12239 -0.94653,-3.78158 -5.32617,-8.47883 -7.42578,-7.96426 -14.61731,-3.72602 -6.5698,8.19902 -5.09606,10.17949 z m 80.18516,342.19966 c 0.49346,0.15715 0.98343,-0.42255 1.08882,-1.28823 0.1054,-0.86569 1.28053,-12.26006 2.61143,-25.32081 1.33091,-13.06077 2.76878,-25.5378 3.1953,-27.72674 0.42651,-2.18893 0.82389,-6.02386 0.88305,-8.52204 0.14656,-6.18701 2.1533,-26.97097 2.72829,-28.2565 0.38021,-0.85006 3.14289,-30.86456 3.71491,-40.35965 0.18677,-3.10101 -0.95513,-3.12585 -1.69517,-0.0369 -0.48868,2.03977 -2.3553,19.03369 -2.50017,22.76184 -0.0348,0.89647 -0.43142,1.72206 -0.8813,1.83467 -0.44986,0.1126 -0.47879,0.53488 -0.0643,0.93841 0.41452,0.40354 0.38352,0.82635 -0.0689,0.9396 -0.45242,0.11323 -0.7362,1.64847 -0.63061,3.41163 0.10559,1.76317 -0.1711,3.09014 -0.61482,2.94881 -0.44375,-0.14132 -0.43097,0.57029 0.0283,1.58134 0.9341,2.05586 0.2735,12.12815 -0.9625,14.67547 -0.43979,0.90638 -0.84662,3.52744 -0.90411,5.82462 -0.75059,16.29795 -1.48599,14.50222 -1.9111,25.9294 0.1569,0.62688 -4.25322,44.49507 -4.7469,47.21805 -0.4618,2.54721 -0.3437,3.10517 0.72963,3.447 z m 13.38258,23.33342 c 2.86815,2.22147 4.61009,1.9405 5.3129,-0.85694 1.01189,-4.02773 -3.55465,-10.06561 -6.96685,-9.21155 -2.13803,0.53515 -2.41496,1.44955 -1.52085,5.02169 0.4839,1.93333 1.74666,3.94064 3.1748,5.0468 z m 28.11115,-5.10371 c 1.23809,0.39428 0.79526,-3.04153 -3.96855,-30.79067 -2.21273,-12.88919 -6.12629,-35.98258 -8.69679,-51.31862 -4.56743,-27.25005 -7.19951,-40.18754 -5.62443,-27.64578 0.71251,5.67347 4.3153,28.84828 9.04013,58.15022 0.9828,6.09506 3.09127,19.26399 4.68549,29.26428 3.67166,23.0318 3.45849,21.98845 4.56415,22.34057 z m 16.74516,3.68513 c 0.96289,-0.24101 -1.59679,-3.40119 -3.20353,-3.95508 -0.56052,-0.19323 -1.54773,0.0194 -2.1938,0.47255 -0.92706,0.65024 -0.5716,1.12653 1.68629,2.25959 1.57351,0.78965 3.24349,1.33996 3.71104,1.22294 z m 2.30096,17.20646 c 1.67589,2.40508 4.54395,4.13869 6.17266,3.73103 0.69379,-0.17367 1.39903,-1.47607 1.56726,-2.89412 0.64579,-5.4446 -7.00006,-11.28225 -8.8421,-6.75097 -0.89383,2.19868 -0.67735,3.36022 1.10218,5.91406 z M 399.6138,641.13432 c 1.75813,1.05421 2.57439,-1.39531 1.48176,-4.44664 -0.63932,-1.78539 -1.85432,-3.06707 -3.43484,-3.6234 l -2.44559,-0.86079 1.66194,4.14319 c 0.91406,2.27875 2.14559,4.43319 2.73673,4.78764 z M 342.34207,393.52841 c 1.32742,1.02813 2.81467,1.61389 3.305,1.30166 0.49031,-0.31221 1.70291,0.0427 2.69466,0.78861 1.51005,1.13577 2.06993,1.11432 3.44411,-0.13203 1.30613,-1.18465 1.45293,-2.32851 0.71949,-5.6063 -1.24734,-5.57444 -1.65493,-6.44082 -3.67385,-7.81017 -4.48673,-3.04308 -9.35735,1.87872 -8.93587,9.02976 0.0181,0.30752 1.11904,1.40032 2.44646,2.42847 z m 51.73508,207.98545 c 4.16433,3.13223 6.08934,-2.99558 2.00819,-6.39256 -1.28327,-1.06815 -1.8281,-1.03543 -3.18035,0.19102 -1.97449,1.79082 -1.52414,4.1735 1.17216,6.20154 z m 49.10258,196.92032 c 2.25354,1.95475 3.26612,1.77047 3.88872,-0.7078 0.59628,-2.37336 -1.52264,-5.63934 -3.84189,-5.92166 -3.12955,-0.38104 -3.16,3.92899 -0.0465,6.62946 z m 11.46477,20.22538 c 3.69321,0.68073 11.58957,5.28431 13.51223,7.87768 0.9437,1.27292 2.03375,2.23481 2.42232,2.13756 0.79586,-0.19921 55.42615,-23.65807 59.91606,-25.72867 l 2.89411,-1.33461 -3.45061,0.0898 c -4.50019,0.11707 -10.33325,-1.25706 -14.65945,-3.4534 l -3.4633,-1.75819 -21.51816,4.31108 c -11.83495,2.37115 -24.72421,4.87089 -28.64278,5.55488 l -7.12466,1.24374 -1.2057,4.77752 c -1.51131,5.98873 -1.56114,5.75163 1.31994,6.28266 z M 392.71564,565.28549 c 2.59229,0.84955 4.26443,-0.96696 3.54307,-3.84896 -0.83628,-3.34114 -2.14467,-3.68646 -4.46108,-1.17741 -2.02177,2.18993 -1.6579,4.1822 0.91801,5.02637 z m 58.9133,230.88647 c 0.0951,0.038 4.83037,-0.85725 10.52283,-1.9895 l 10.34995,-2.05849 -2.38141,-2.03352 c -1.30976,-1.11838 -2.49939,-2.5049 -2.6436,-3.08104 -0.19141,-0.76476 -1.09033,-0.62583 -3.32992,0.51471 -1.68726,0.85923 -5.72852,2.21442 -8.9806,3.01144 -5.89769,1.44575 -5.91007,1.45438 -4.81149,3.50831 0.60574,1.13246 1.17915,2.0901 1.27424,2.12809 z m 12.30572,38.59311 c 1.97219,1.18254 3.42783,0.47268 3.56528,-1.73862 0.14118,-2.27105 -3.6944,-5.13772 -5.03351,-3.76205 -1.07543,1.10464 -0.16314,4.52246 1.46821,5.50068 z M 393.84005,530.58503 c 1.6586,-0.40316 1.84053,-0.93771 1.19585,-3.51338 -0.91221,-3.64446 -1.69855,-3.59823 -3.99705,0.23504 -1.87933,3.1342 -0.9724,4.19562 2.8012,3.27834 z M 367.63505,417.876 c 2.37558,0.99073 4.15655,-2.09519 3.26496,-5.65727 -0.77766,-3.10691 -4.32246,-7.29954 -6.38959,-7.55732 -5.38312,-0.67127 -2.67132,10.79744 3.12463,13.21459 z m 111.06019,435.14232 c 2.25581,0.39893 6.20351,2.01736 8.77264,3.59648 l 4.67114,2.87102 23.34492,-16.22834 c 12.83973,-8.92559 31.83835,-22.09263 42.21916,-29.26008 10.38082,-7.16747 19.00161,-13.21372 19.15733,-13.43606 0.85337,-1.21839 -1.95957,-1.15026 -7.52177,0.18218 -7.32029,1.75386 -91.97803,37.0056 -94.09745,39.18285 -0.42693,0.43851 -0.59173,1.66054 -0.36627,2.71552 0.22553,1.05506 0.22568,3.41703 4e-4,5.2489 -0.22523,1.83188 -0.38075,3.57175 -0.34597,3.86628 0.0353,0.29465 1.9096,0.86219 4.16543,1.26121 z M 392.6817,498.60735 c 0.89913,-0.22506 0.88345,-4.22511 -0.024,-6.14679 -0.62723,-1.32808 -0.93927,-1.1336 -2.60664,1.62447 -1.81256,2.99822 -1.81146,3.16676 0.0256,3.91354 1.05583,0.42919 2.22816,0.70316 2.6052,0.60878 z m -15.09119,-58.1719 c 1.17872,1.02246 2.55387,1.35748 3.68338,0.89738 2.69219,-1.09666 1.47256,-7.19312 -1.97287,-9.86172 l -2.53091,-1.96029 -0.82574,3.31163 c -1.03233,4.14017 -0.72639,5.55499 1.64614,7.613 z m 9.22659,28.24797 c 2.63465,0.6619 2.68483,0.61972 2.96615,-2.49177 0.25786,-2.85616 -1.0518,-6.25598 -2.29106,-5.94578 -1.02013,0.25533 -3.2078,5.44643 -2.86777,6.80491 0.15891,0.63489 1.14562,1.36957 2.19268,1.63264 z m 102.49598,399.72617 c 2.53773,2.87881 3.93887,1.26681 2.10475,-2.42156 -1.36394,-2.74282 -2.68558,-3.55709 -3.84322,-2.36797 -1.01621,1.04388 -0.63321,2.09909 1.73847,4.78953 z m -22.4688,-120.85111 c 1.93605,2.2208 3.14796,2.86471 4.6733,2.4829 2.35546,-0.58956 2.71112,-1.88094 1.45562,-5.28527 -2.52729,-6.85291 -9.47828,-7.56797 -8.81371,-0.90671 0.0391,0.3909 1.24715,2.05998 2.68479,3.70908 z m 37.10526,136.36343 c 2.17811,0.0999 5.8845,0.94474 8.23643,1.87745 l 4.27621,1.69575 7.18803,-7.50343 c 3.95339,-4.12695 9.32331,-9.75086 11.93314,-12.4977 2.60981,-2.74684 15.09792,-15.86638 27.75139,-29.1545 32.19669,-33.81177 35.25433,-37.12634 34.60704,-37.5144 -0.31477,-0.1888 -15.72546,10.14992 -34.24603,22.97474 -18.52055,12.8249 -40.80191,28.24303 -49.51415,34.26254 l -15.84044,10.94454 1.2133,5.1544 c 0.66736,2.83499 0.99222,5.91591 0.72198,6.84657 -0.74976,2.58168 -0.57652,2.7191 3.6731,2.91404 z m 16.5774,17.86518 c 1.00209,-0.0497 1.33425,-0.67772 1.02075,-1.93019 -0.63564,-2.53955 -2.84646,-4.82855 -4.3099,-4.46226 -2.91993,0.73086 0.0751,6.55173 3.28915,6.39245 z m 8.0812,4.89967 0.80604,4.33135 4.29761,0.0298 c 2.36368,0.016 5.36538,0.40128 6.67043,0.85529 2.33935,0.81374 2.71204,0.27081 26.42909,-38.50066 18.24339,-29.82334 24.31268,-40.49361 25.11734,-44.15802 0.58355,-2.65767 0.95684,-4.89063 0.82949,-4.96216 -0.24339,-0.13683 -24.97174,25.6424 -46.60605,48.5867 -7.01525,7.43999 -14.78186,15.5921 -17.25913,18.11578 l -4.50415,4.58845 1.70666,3.391 c 0.93865,1.86504 2.06935,5.34007 2.51267,7.72236 z m 19.67031,20.64469 c 3.36481,3.81707 6.28557,1.25692 3.82152,-3.34979 -1.2034,-2.24978 -3.22809,-2.88024 -5.07955,-1.58165 -1.4873,1.04318 -1.20946,2.13227 1.25805,4.93144 z M 509.60225,755.8993 c 3.64221,3.54563 6.37281,2.38872 5.58878,-2.36779 -0.84512,-5.12722 -6.16816,-8.23249 -8.22681,-4.79922 -1.15429,1.92495 -0.26504,4.34088 2.63803,7.16701 z m 45.80298,166.83549 c 1.22406,1.85031 2.68937,5.21725 3.25624,7.48201 l 1.03068,4.11777 3.8017,-0.47232 c 2.09092,-0.25985 4.49974,-0.36995 5.35291,-0.24483 1.19744,0.17559 2.59516,-2.72768 6.12885,-12.73082 11.47922,-32.49496 12.58676,-36.14173 12.14859,-40.00068 -0.47307,-4.16622 0.74285,-10.44563 2.71321,-14.01193 0.87611,-1.58563 0.92033,-2.88484 0.14871,-4.36686 -0.60411,-1.16026 -1.17583,-2.17505 -1.27045,-2.25504 -0.36371,-0.30752 -35.86563,57.80158 -35.70531,58.44204 0.0932,0.37201 1.17081,2.19034 2.39487,4.04066 z m 26.57628,27.52603 c 2.43544,1.83183 4.92705,0.68606 4.26449,-1.96104 -0.57159,-2.2836 -5.42433,-5.66136 -6.51862,-4.53725 -1.28699,1.32203 -0.10768,4.72182 2.25413,6.49829 z m 3.54079,-8.24981 c 2.04341,2.24189 4.33426,5.4367 5.09079,7.09966 1.23149,2.70697 1.70398,2.98098 4.51197,2.61654 1.8921,-0.24549 3.19061,-0.85118 3.27282,-1.52725 0.075,-0.61609 -1.26307,-3.30264 -2.97353,-5.97005 -1.71046,-2.66742 -3.49178,-6.37539 -3.95846,-8.23994 -1.06612,-4.25933 -0.47906,-10.87856 1.23782,-13.95534 1.19041,-2.13359 1.13544,-2.61549 -0.59112,-5.18176 -1.04698,-1.55614 -2.1161,-2.76777 -2.37582,-2.69254 -0.4758,0.13755 -8.08251,22.30169 -7.983,23.25999 0.0294,0.28301 1.7253,2.34883 3.76872,4.5907 z M 548.21259,761.01753 c 3.16981,1.69773 5.13421,0.55109 4.34456,-2.53597 -0.9974,-3.8993 -2.46543,-5.8233 -5.15766,-6.75983 -2.44725,-0.85138 -2.63111,-0.79606 -3.36622,1.01217 -1.05527,2.59599 0.93853,6.54776 4.17932,8.28363 z m 67.35106,206.92312 c 2.05937,1.65535 4.68439,0.46291 4.42878,-2.01205 -0.23995,-2.32343 -5.20258,-6.05287 -6.40742,-4.81521 -1.16349,1.19519 0.0101,5.24489 1.97864,6.82726 z M 575.95282,759.60256 c 1.66371,2.53551 5.67087,4.09209 7.00541,2.72127 2.30634,-2.36921 -3.25632,-9.84614 -6.68652,-8.98755 -2.84884,0.71306 -2.929,2.28836 -0.31889,6.26628 z m 53.0421,156.70317 c -1.00951,-9.79644 -5.54485,-42.25243 -7.47175,-53.46995 -2.35991,-13.73815 -0.71921,2.64607 2.43279,24.29414 1.81723,12.48089 3.37518,23.50483 3.4621,24.49765 0.0869,0.99282 0.59195,3.56423 1.12227,5.71428 0.9568,3.87902 0.96059,3.87096 0.45459,-1.03612 z m 9.97875,39.98149 c 0.71672,2.86348 1.28661,3.48278 3.73786,4.0618 3.78572,0.89436 3.93962,0.81691 3.31742,-1.66892 -0.86149,-3.44181 -2.86844,-5.65851 -6.44514,-7.11882 -2.68402,-1.09584 -3.17135,-1.09848 -2.41005,-0.0134 0.52486,0.74826 1.3348,2.88079 1.79991,4.739 z m -3.24713,-18.58949 c 0.87874,0.42173 1.74523,0.52073 1.92553,0.22001 0.51626,-0.861 -2.45995,-4.71648 -3.44963,-4.46876 -1.36561,0.34181 -0.27366,3.38593 1.5241,4.24873 z m 14.05583,43.09785 c 1.08767,0.58064 2.52031,0.67492 3.18368,0.20967 1.76996,-1.24148 0.72644,-4.00786 -2.32525,-6.16432 -2.18865,-1.54662 -2.85671,-1.63831 -3.68705,-0.50629 -1.2716,1.73388 0.17866,5.04647 2.82862,6.46093 z M 632.2728,902.11141 c 18.00932,44.86093 28.42178,70.3553 28.83609,70.60374 1.0702,0.64174 -0.92566,-4.77566 -10.22774,-27.76111 -5.31274,-13.12785 -12.55753,-31.22382 -16.09949,-40.21318 -3.54197,-8.98944 -6.65888,-16.47571 -6.92647,-16.63618 -0.89714,-0.53795 1.024,5.5533 4.41761,14.00673 z m 39.54024,126.41749 c 0.21517,0.8596 3.47221,-0.3389 11.09558,-4.0829 l 4.1821,-2.0539 -2.19769,-1.3178 c -1.80533,-1.0826 -3.41708,-1.0319 -9.02765,0.2834 -4.62489,1.0839 -7.90651,1.3497 -10.16437,0.8218 -1.83391,-0.4287 -3.50829,-0.7359 -3.72083,-0.6828 -0.21255,0.053 1.86582,1.4692 4.6186,3.1465 2.75277,1.6774 5.09917,3.426 5.21426,3.8857 z m -3.78247,5.7143 c 1.60042,1.3322 3.49353,0.4059 2.97449,-1.4552 -0.15749,-0.5649 -1.07026,-1.6587 -2.02838,-2.431 -1.49437,-1.2045 -1.8125,-1.1905 -2.23762,0.099 -0.65166,1.9762 -0.55949,2.2467 1.29151,3.7873 z M 600.21859,759.05882 c 1.73539,2.9353 2.9657,4.07614 4.4123,4.09139 1.10325,0.0114 2.27876,-0.25926 2.61218,-0.60217 1.75903,-1.80709 -3.33068,-9.67431 -5.85069,-9.04356 -0.61313,0.15346 -1.22452,-0.15941 -1.35866,-0.69525 -0.16847,-0.67311 -0.56266,-0.53948 -1.27532,0.4322 -1.23799,1.68783 -1.42751,0.93275 1.45969,5.81704 z m 18.73874,1.51951 c 3.27116,4.38405 8.63853,3.0928 6.09447,-1.46641 -2.66184,-4.77007 -5.74057,-6.4205 -7.50062,-4.02074 -1.18158,1.61109 -1.02238,2.23237 1.40614,5.48698 z m 62.11206,227.54804 c 2.58738,1.55142 3.89804,1.36891 4.13479,-0.57579 0.41211,-3.38509 -4.67507,-7.72696 -6.66198,-5.68601 -1.2138,1.24689 0.26199,4.90359 2.52719,6.2618 z m -48.67646,-225.2146 c 3.62897,2.56435 5.9491,1.01849 4.15422,-2.76799 -1.54913,-3.26802 -4.92387,-5.43991 -6.6124,-4.25561 -1.82129,1.27749 -0.55559,4.89389 2.45818,7.0236 z m 10.80348,3.6031 c 1.77173,1.0984 -0.1909,-4.51593 -2.07801,-5.94444 -1.66431,-1.25986 -1.68678,-1.13331 -0.35313,1.98739 0.78339,1.83305 1.87739,3.61373 2.43114,3.95705 z m 67.26363,225.37474 c 2.40761,1.81087 4.92963,0.69627 4.28168,-1.89241 -0.52421,-2.09428 -4.76503,-5.41695 -6.39362,-5.00931 -1.80392,0.45152 -0.4108,5.0042 2.11194,6.90172 z m 25.80411,0.17657 c 1.88568,1.3038 3.77763,1.1562 4.2515,-0.33183 0.45795,-1.43791 -3.59358,-6.46096 -5.38753,-6.67934 -3.36727,-0.40989 -2.58128,4.44094 1.13603,7.01117 z m 21.48274,-2.61013 c 3.61257,2.49783 5.57946,-0.80467 2.58697,-4.34368 -2.33156,-2.7573 -5.06488,-3.50581 -5.70604,-1.56255 -0.58615,1.77649 0.71804,4.24611 3.11907,5.90623 z m 17.08803,-4.79214 c 2.27517,1.36419 2.91222,1.42011 3.28628,0.28805 0.8198,-2.48033 -0.34268,-4.97536 -3.01209,-6.46482 -1.43044,-0.79813 -2.95535,-1.08679 -3.38878,-0.64165 -1.42194,1.46078 0.23721,5.09269 3.11464,6.81806 z m 9.94688,-6.44992 c 2.47542,3.10672 6.082,2.6885 5.2565,-0.60957 -0.57404,-2.2934 -3.84645,-4.72204 -5.72802,-4.25108 -1.91169,0.47848 -1.75801,2.06259 0.47152,4.86065 z m 8.41651,-3.62657 c 1.61784,1.23184 4.46471,0.31508 4.0587,-1.30705 -0.41606,-1.66224 -2.89672,-4.5179 -4.36143,-5.02076 -0.59201,-0.20322 -1.48058,0.18151 -1.97456,0.85504 -0.92149,1.25639 0.16317,3.86304 2.27729,5.47277 z m 4.15467,-5.52982 c 2.4555,2.37707 2.71757,2.44696 2.5328,0.67539 -0.26379,-2.52898 -2.63005,-5.1539 -4.27492,-4.7422 -1.70149,0.42589 -1.47664,0.95078 1.74212,4.06681 z"
         id="path2996"
         style="fill:#0063ef;fill-opacity:1" />
    </g>
  </g>
</svg>
